<svg data-v-423bf9ae="" xmlns="http://www.w3.org/2000/svg" viewBox="0 0 401.7604238675421 60" class="font"><!----><!----><!----><g data-v-423bf9ae="" id="6fd8f839-ea1c-4105-b976-caa486ec355b" fill="black" transform="matrix(5.4446458718365625,0,0,5.4446458718365625,-4.573496261198358,-7.622503733132845)"><path d="M8.25 1.40L8.25 1.40Q8.44 1.40 8.55 1.51L8.55 1.51L8.55 1.51Q8.67 1.62 8.67 1.82L8.67 1.82L8.67 8.55L8.67 8.58L8.67 8.58Q8.65 9.66 8.13 10.54L8.13 10.54L8.13 10.54Q7.62 11.42 6.73 11.92L6.73 11.92L6.73 11.92Q5.84 12.42 4.76 12.42L4.76 12.42L4.76 12.42Q3.65 12.42 2.76 11.91L2.76 11.91L2.76 11.91Q1.86 11.40 1.35 10.50L1.35 10.50L1.35 10.50Q0.84 9.60 0.84 8.50L0.84 8.50L0.84 8.50Q0.84 7.41 1.35 6.51L1.35 6.51L1.35 6.51Q1.86 5.61 2.76 5.10L2.76 5.10L2.76 5.10Q3.65 4.59 4.76 4.59L4.76 4.59L4.76 4.59Q5.75 4.59 6.56 5.02L6.56 5.02L6.56 5.02Q7.36 5.45 7.83 6.19L7.83 6.19L7.83 1.82L7.83 1.82Q7.83 1.62 7.95 1.51L7.95 1.51L7.95 1.51Q8.06 1.40 8.25 1.40L8.25 1.40ZM4.76 11.63L4.76 11.63Q5.63 11.63 6.33 11.22L6.33 11.22L6.33 11.22Q7.03 10.81 7.43 10.09L7.43 10.09L7.43 10.09Q7.83 9.38 7.83 8.50L7.83 8.50L7.83 8.50Q7.83 7.62 7.43 6.90L7.43 6.90L7.43 6.90Q7.03 6.19 6.33 5.78L6.33 5.78L6.33 5.78Q5.63 5.38 4.76 5.38L4.76 5.38L4.76 5.38Q3.89 5.38 3.19 5.78L3.19 5.78L3.19 5.78Q2.49 6.19 2.09 6.90L2.09 6.90L2.09 6.90Q1.68 7.62 1.68 8.50L1.68 8.50L1.68 8.50Q1.68 9.38 2.09 10.09L2.09 10.09L2.09 10.09Q2.49 10.81 3.19 11.22L3.19 11.22L3.19 11.22Q3.89 11.63 4.76 11.63L4.76 11.63ZM14.36 4.61L14.36 4.61Q15.39 4.61 16.19 5.09L16.19 5.09L16.19 5.09Q17.00 5.57 17.44 6.43L17.44 6.43L17.44 6.43Q17.89 7.28 17.89 8.37L17.89 8.37L17.89 8.37Q17.89 8.55 17.78 8.66L17.78 8.66L17.78 8.66Q17.67 8.76 17.49 8.76L17.49 8.76L11.62 8.76L11.62 8.76Q11.66 9.59 12.05 10.24L12.05 10.24L12.05 10.24Q12.45 10.89 13.10 11.26L13.10 11.26L13.10 11.26Q13.76 11.62 14.57 11.62L14.57 11.62L14.57 11.62Q15.12 11.62 15.67 11.43L15.67 11.43L15.67 11.43Q16.23 11.24 16.55 10.93L16.55 10.93L16.55 10.93Q16.69 10.82 16.84 10.82L16.84 10.82L16.84 10.82Q17.00 10.82 17.09 10.91L17.09 10.91L17.09 10.91Q17.25 11.03 17.25 11.20L17.25 11.20L17.25 11.20Q17.25 11.34 17.12 11.47L17.12 11.47L17.12 11.47Q16.67 11.87 15.95 12.14L15.95 12.14L15.95 12.14Q15.23 12.40 14.57 12.40L14.57 12.40L14.57 12.40Q13.47 12.40 12.61 11.91L12.61 11.91L12.61 11.91Q11.75 11.41 11.26 10.52L11.26 10.52L11.26 10.52Q10.77 9.63 10.77 8.51L10.77 8.51L10.77 8.51Q10.77 7.38 11.22 6.49L11.22 6.49L11.22 6.49Q11.68 5.60 12.50 5.10L12.50 5.10L12.50 5.10Q13.31 4.61 14.36 4.61L14.36 4.61ZM14.36 5.39L14.36 5.39Q13.27 5.39 12.52 6.12L12.52 6.12L12.52 6.12Q11.77 6.85 11.63 8.04L11.63 8.04L17.08 8.04L17.08 8.04Q16.98 6.85 16.24 6.12L16.24 6.12L16.24 6.12Q15.50 5.39 14.36 5.39L14.36 5.39ZM25.73 4.69L25.73 4.69Q25.97 4.80 25.97 5.05L25.97 5.05L25.97 5.05Q25.97 5.15 25.94 5.21L25.94 5.21L22.79 12.05L22.79 12.05Q22.65 12.35 22.34 12.35L22.34 12.35L22.34 12.35Q22.22 12.35 22.11 12.27L22.11 12.27L22.11 12.27Q22.01 12.19 21.95 12.05L21.95 12.05L18.76 5.22L18.76 5.22Q18.73 5.17 18.73 5.07L18.73 5.07L18.73 5.07Q18.73 4.82 18.97 4.70L18.97 4.70L18.97 4.70Q19.05 4.66 19.14 4.66L19.14 4.66L19.14 4.66Q19.38 4.66 19.49 4.90L19.49 4.90L22.36 11.12L25.19 4.89L25.19 4.89Q25.30 4.65 25.55 4.65L25.55 4.65L25.55 4.65Q25.65 4.65 25.73 4.69L25.73 4.69ZM31.01 4.59L31.01 4.59Q32.10 4.59 33.00 5.10L33.00 5.10L33.00 5.10Q33.89 5.61 34.41 6.51L34.41 6.51L34.41 6.51Q34.92 7.41 34.92 8.51L34.92 8.51L34.92 11.91L34.92 11.91Q34.92 12.10 34.80 12.21L34.80 12.21L34.80 12.21Q34.69 12.33 34.50 12.33L34.50 12.33L34.50 12.33Q34.31 12.33 34.20 12.21L34.20 12.21L34.20 12.21Q34.08 12.10 34.08 11.91L34.08 11.91L34.08 10.82L34.08 10.82Q33.61 11.56 32.81 11.99L32.81 11.99L32.81 11.99Q32.00 12.42 31.01 12.42L31.01 12.42L31.01 12.42Q29.90 12.42 29.01 11.91L29.01 11.91L29.01 11.91Q28.11 11.40 27.60 10.50L27.60 10.50L27.60 10.50Q27.09 9.60 27.09 8.51L27.09 8.51L27.09 8.51Q27.09 7.41 27.60 6.51L27.60 6.51L27.60 6.51Q28.11 5.61 29.01 5.10L29.01 5.10L29.01 5.10Q29.90 4.59 31.01 4.59L31.01 4.59ZM31.01 11.63L31.01 11.63Q31.88 11.63 32.58 11.23L32.58 11.23L32.58 11.23Q33.28 10.82 33.68 10.11L33.68 10.11L33.68 10.11Q34.08 9.39 34.08 8.51L34.08 8.51L34.08 8.51Q34.08 7.63 33.68 6.92L33.68 6.92L33.68 6.92Q33.28 6.20 32.58 5.79L32.58 5.79L32.58 5.79Q31.88 5.38 31.01 5.38L31.01 5.38L31.01 5.38Q30.14 5.38 29.44 5.79L29.44 5.79L29.44 5.79Q28.74 6.20 28.34 6.92L28.34 6.92L28.34 6.92Q27.93 7.63 27.93 8.51L27.93 8.51L27.93 8.51Q27.93 9.39 28.34 10.11L28.34 10.11L28.34 10.11Q28.74 10.82 29.44 11.23L29.44 11.23L29.44 11.23Q30.14 11.63 31.01 11.63L31.01 11.63ZM36.74 1.82L36.74 1.82Q36.74 1.62 36.85 1.51L36.85 1.51L36.85 1.51Q36.97 1.40 37.16 1.40L37.16 1.40L37.16 1.40Q37.35 1.40 37.46 1.51L37.46 1.51L37.46 1.51Q37.58 1.62 37.58 1.82L37.58 1.82L37.58 10.02L37.58 10.02Q37.58 10.67 37.85 11.08L37.85 11.08L37.85 11.08Q38.12 11.49 38.56 11.49L38.56 11.49L38.91 11.49L38.91 11.49Q39.06 11.49 39.16 11.61L39.16 11.61L39.16 11.61Q39.26 11.72 39.26 11.91L39.26 11.91L39.26 11.91Q39.26 12.10 39.14 12.21L39.14 12.21L39.14 12.21Q39.03 12.33 38.84 12.33L38.84 12.33L38.56 12.33L38.56 12.33Q37.76 12.33 37.25 11.69L37.25 11.69L37.25 11.69Q36.74 11.05 36.74 10.02L36.74 10.02L36.74 1.82ZM44.30 4.59L44.30 4.59Q45.39 4.59 46.28 5.10L46.28 5.10L46.28 5.10Q47.18 5.61 47.69 6.51L47.69 6.51L47.69 6.51Q48.20 7.41 48.20 8.51L48.20 8.51L48.20 8.51Q48.20 9.60 47.69 10.50L47.69 10.50L47.69 10.50Q47.18 11.40 46.28 11.91L46.28 11.91L46.28 11.91Q45.39 12.42 44.30 12.42L44.30 12.42L44.30 12.42Q43.19 12.42 42.29 11.91L42.29 11.91L42.29 11.91Q41.40 11.40 40.89 10.50L40.89 10.50L40.89 10.50Q40.38 9.60 40.38 8.51L40.38 8.51L40.38 8.51Q40.38 7.41 40.89 6.51L40.89 6.51L40.89 6.51Q41.40 5.61 42.29 5.10L42.29 5.10L42.29 5.10Q43.19 4.59 44.30 4.59L44.30 4.59ZM44.30 5.38L44.30 5.38Q43.43 5.38 42.73 5.79L42.73 5.79L42.73 5.79Q42.03 6.20 41.62 6.92L41.62 6.92L41.62 6.92Q41.22 7.63 41.22 8.51L41.22 8.51L41.22 8.51Q41.22 9.39 41.62 10.11L41.62 10.11L41.62 10.11Q42.03 10.82 42.73 11.23L42.73 11.23L42.73 11.23Q43.43 11.63 44.30 11.63L44.30 11.63L44.30 11.63Q45.16 11.63 45.86 11.23L45.86 11.23L45.86 11.23Q46.56 10.82 46.96 10.11L46.96 10.11L46.96 10.11Q47.36 9.39 47.36 8.51L47.36 8.51L47.36 8.51Q47.36 7.63 46.96 6.92L46.96 6.92L46.96 6.92Q46.56 6.20 45.86 5.79L45.86 5.79L45.86 5.79Q45.16 5.38 44.30 5.38L44.30 5.38ZM53.80 4.58L53.80 4.58Q54.82 4.58 55.63 5.00L55.63 5.00L55.63 5.00Q56.43 5.42 56.89 6.22L56.89 6.22L56.89 6.22Q57.34 7.03 57.34 8.15L57.34 8.15L57.34 11.91L57.34 11.91Q57.34 12.10 57.23 12.21L57.23 12.21L57.23 12.21Q57.11 12.33 56.92 12.33L56.92 12.33L56.92 12.33Q56.74 12.33 56.62 12.21L56.62 12.21L56.62 12.21Q56.50 12.10 56.50 11.91L56.50 11.91L56.50 8.15L56.50 8.15Q56.50 6.82 55.76 6.12L55.76 6.12L55.76 6.12Q55.01 5.42 53.80 5.42L53.80 5.42L53.80 5.42Q53.06 5.42 52.45 5.70L52.45 5.70L52.45 5.70Q51.84 5.99 51.49 6.50L51.49 6.50L51.49 6.50Q51.14 7.01 51.14 7.63L51.14 7.63L51.14 11.91L51.14 11.91Q51.14 12.10 51.03 12.21L51.03 12.21L51.03 12.21Q50.92 12.33 50.72 12.33L50.72 12.33L50.72 12.33Q50.54 12.33 50.42 12.21L50.42 12.21L50.42 12.21Q50.30 12.10 50.30 11.91L50.30 11.91L50.30 5.10L50.30 5.10Q50.30 4.90 50.42 4.79L50.42 4.79L50.42 4.79Q50.54 4.68 50.72 4.68L50.72 4.68L50.72 4.68Q50.92 4.68 51.03 4.79L51.03 4.79L51.03 4.79Q51.14 4.90 51.14 5.10L51.14 5.10L51.14 5.82L51.14 5.82Q51.62 5.24 52.30 4.91L52.30 4.91L52.30 4.91Q52.99 4.58 53.80 4.58L53.80 4.58ZM62.34 4.59L62.34 4.59Q64.11 4.59 65.02 5.85L65.02 5.85L65.02 5.85Q65.10 5.95 65.10 6.09L65.10 6.09L65.10 6.09Q65.10 6.29 64.88 6.41L64.88 6.41L64.88 6.41Q64.74 6.47 64.67 6.47L64.67 6.47L64.67 6.47Q64.46 6.47 64.32 6.29L64.32 6.29L64.32 6.29Q63.60 5.38 62.31 5.38L62.31 5.38L62.31 5.38Q61.46 5.38 60.96 5.75L60.96 5.75L60.96 5.75Q60.45 6.12 60.45 6.66L60.45 6.66L60.45 6.66Q60.45 7.22 60.94 7.56L60.94 7.56L60.94 7.56Q61.42 7.90 62.55 8.06L62.55 8.06L62.55 8.06Q64.04 8.27 64.69 8.86L64.69 8.86L64.69 8.86Q65.34 9.44 65.34 10.26L65.34 10.26L65.34 10.26Q65.34 10.91 64.92 11.40L64.92 11.40L64.92 11.40Q64.51 11.89 63.83 12.15L63.83 12.15L63.83 12.15Q63.14 12.42 62.33 12.42L62.33 12.42L62.33 12.42Q61.52 12.42 60.75 12.13L60.75 12.13L60.75 12.13Q59.98 11.84 59.47 11.26L59.47 11.26L59.47 11.26Q59.37 11.14 59.37 11.00L59.37 11.00L59.37 11.00Q59.37 10.81 59.56 10.68L59.56 10.68L59.56 10.68Q59.64 10.61 59.79 10.61L59.79 10.61L59.79 10.61Q59.99 10.61 60.12 10.77L60.12 10.77L60.12 10.77Q60.82 11.62 62.37 11.62L62.37 11.62L62.37 11.62Q63.48 11.62 64.00 11.23L64.00 11.23L64.00 11.23Q64.53 10.84 64.53 10.22L64.53 10.22L64.53 10.22Q64.53 9.11 62.38 8.81L62.38 8.81L62.38 8.81Q61.03 8.61 60.33 8.06L60.33 8.06L60.33 8.06Q59.64 7.52 59.64 6.75L59.64 6.75L59.64 6.75Q59.64 5.73 60.39 5.16L60.39 5.16L60.39 5.16Q61.14 4.59 62.34 4.59L62.34 4.59ZM70.73 4.59L70.73 4.59Q71.82 4.59 72.72 5.10L72.72 5.10L72.72 5.10Q73.61 5.61 74.12 6.51L74.12 6.51L74.12 6.51Q74.63 7.41 74.63 8.51L74.63 8.51L74.63 8.51Q74.63 9.60 74.12 10.50L74.12 10.50L74.12 10.50Q73.61 11.40 72.72 11.91L72.72 11.91L72.72 11.91Q71.82 12.42 70.73 12.42L70.73 12.42L70.73 12.42Q69.62 12.42 68.73 11.91L68.73 11.91L68.73 11.91Q67.83 11.40 67.32 10.50L67.32 10.50L67.32 10.50Q66.81 9.60 66.81 8.51L66.81 8.51L66.81 8.51Q66.81 7.41 67.32 6.51L67.32 6.51L67.32 6.51Q67.83 5.61 68.73 5.10L68.73 5.10L68.73 5.10Q69.62 4.59 70.73 4.59L70.73 4.59ZM70.73 5.38L70.73 5.38Q69.86 5.38 69.16 5.79L69.16 5.79L69.16 5.79Q68.46 6.20 68.05 6.92L68.05 6.92L68.05 6.92Q67.65 7.63 67.65 8.51L67.65 8.51L67.65 8.51Q67.65 9.39 68.05 10.11L68.05 10.11L68.05 10.11Q68.46 10.82 69.16 11.23L69.16 11.23L69.16 11.23Q69.86 11.63 70.73 11.63L70.73 11.63L70.73 11.63Q71.60 11.63 72.30 11.23L72.30 11.23L72.30 11.23Q73.00 10.82 73.40 10.11L73.40 10.11L73.40 10.11Q73.79 9.39 73.79 8.51L73.79 8.51L73.79 8.51Q73.79 7.63 73.40 6.92L73.40 6.92L73.40 6.92Q73.00 6.20 72.30 5.79L72.30 5.79L72.30 5.79Q71.60 5.38 70.73 5.38L70.73 5.38Z"></path></g><!----><!----></svg>